<?xml version="1.0" encoding="iso-8859-1"?>
<!-- Generator: Adobe Illustrator 19.0.0, SVG Export Plug-In . SVG Version: 6.00 Build 0)  -->
<svg version="1.1" id="Capa_1" xmlns="http://www.w3.org/2000/svg" xmlns:xlink="http://www.w3.org/1999/xlink" x="0px" y="0px"
	 viewBox="0 0 512 512" style="enable-background:new 0 0 512 512;" xml:space="preserve">
<path style="fill:#00A5FF;" d="M109.607,390.62c-24.635,0-44.678,20.043-44.678,44.679s20.043,44.679,44.678,44.679
	c24.636,0,44.679-20.043,44.679-44.679S134.244,390.62,109.607,390.62z"/>
<path style="fill:#006DF3;" d="M258.991,390.62c-24.635,0-44.678,20.043-44.678,44.679s20.043,44.679,44.678,44.679
	c24.636,0,44.679-20.043,44.679-44.679S283.629,390.62,258.991,390.62z"/>
<path style="fill:#A2A7B2;" d="M366.554,232.591c0,8.301-6.737,15.039-15.039,15.039h-85.58v76.617
	c0,8.301-6.737,15.039-15.039,15.039c-8.311,0-15.039-6.737-15.039-15.039v-76.617h-79.204v76.617
	c0,8.301-6.737,15.039-15.039,15.039c-8.311,0-15.039-6.737-15.039-15.039v-76.617H41.767c-8.311,0-15.039-6.737-15.039-15.039
	s6.727-15.039,15.039-15.039h84.808v-79.655c0-8.301,6.727-15.039,15.039-15.039c8.301,0,15.039,6.737,15.039,15.039v79.655h79.204
	v-78.653c0-8.301,6.727-15.039,15.039-15.039c8.301,0,15.039,6.737,15.039,15.039v78.653h85.58
	C359.816,217.552,366.554,224.289,366.554,232.591z"/>
<path style="fill:#989CA6;" d="M366.554,232.591c0,8.301-6.737,15.039-15.039,15.039h-85.58v76.617
	c0,8.301-6.737,15.039-15.039,15.039c-8.311,0-15.039-6.737-15.039-15.039v-76.617h-39.221v-30.077h39.221v-78.653
	c0-8.301,6.727-15.039,15.039-15.039c8.301,0,15.039,6.737,15.039,15.039v78.653h85.58
	C359.816,217.552,366.554,224.289,366.554,232.591z"/>
<path style="fill:#00A5FF;" d="M28.693,122.858c-9.214,0-17.625,4.251-23.079,11.66c-5.464,7.419-7.028,16.703-4.301,25.496
	l49.377,159.1c3.74,12.061,14.748,20.172,27.371,20.172h239.567c12.633,0,23.631-8.111,27.381-20.172l60.907-196.256
	C405.915,122.858,28.693,122.858,28.693,122.858z M316.585,309.208H79.103L30.608,152.936H365.08L316.585,309.208z"/>
<path style="fill:#006DF3;" d="M405.915,122.858l-60.907,196.256c-3.75,12.061-14.748,20.172-27.381,20.172H196.636v-30.077h119.949
	l48.495-156.273H196.636v-30.077C196.636,122.858,405.915,122.858,405.915,122.858z"/>
<path style="fill:#FFB83B;" d="M500.238,61.741l-80.969,18.067l-91.004,293.255c-2.005,6.447-7.94,10.577-14.357,10.577
	c-0.411,0-0.812-0.02-1.223-0.05c-0.321,0.02-0.642,0.05-0.973,0.05H47.141c-8.311,0-15.039-6.737-15.039-15.039
	s6.727-15.039,15.039-15.039h255.679l90.313-290.99c0.04-0.14,0.1-0.261,0.14-0.401c0.1-0.281,0.201-0.571,0.311-0.842
	c0.09-0.231,0.201-0.441,0.301-0.652c0.1-0.221,0.201-0.441,0.311-0.652c0.13-0.251,0.271-0.481,0.411-0.722
	c0.1-0.17,0.211-0.351,0.321-0.511c0.16-0.251,0.331-0.491,0.501-0.722c0.11-0.15,0.231-0.311,0.351-0.461
	c0.18-0.221,0.361-0.431,0.551-0.642c0.14-0.16,0.281-0.311,0.431-0.461c0.18-0.19,0.371-0.361,0.561-0.531
	c0.17-0.17,0.351-0.331,0.531-0.481c0.18-0.15,0.361-0.291,0.541-0.421c0.211-0.16,0.421-0.321,0.642-0.471
	c0.18-0.12,0.351-0.231,0.531-0.341c0.231-0.15,0.471-0.291,0.712-0.421c0.19-0.1,0.391-0.201,0.581-0.291
	c0.241-0.12,0.471-0.231,0.712-0.341c0.241-0.1,0.481-0.19,0.722-0.271c0.211-0.08,0.411-0.16,0.632-0.231
	c0.301-0.09,0.602-0.17,0.912-0.251c0.13-0.03,0.251-0.08,0.381-0.1l89.46-19.971c8.101-1.805,16.152,3.299,17.956,11.409
	C513.442,51.895,508.339,59.936,500.238,61.741z"/>
<path style="fill:#FF9800;" d="M500.238,61.741l-80.969,18.067l-91.004,293.255c-2.005,6.447-7.94,10.577-14.357,10.577
	c-0.411,0-0.812-0.02-1.223-0.05c-0.321,0.02-0.642,0.05-0.973,0.05H196.636v-30.077h106.184l90.313-290.99
	c0.04-0.14,0.1-0.261,0.14-0.401c0.1-0.281,0.201-0.571,0.311-0.842c0.09-0.231,0.201-0.441,0.301-0.652
	c0.1-0.221,0.201-0.441,0.311-0.652c0.13-0.251,0.271-0.481,0.411-0.722c0.1-0.17,0.211-0.351,0.321-0.511
	c0.16-0.251,0.331-0.491,0.501-0.722c0.11-0.15,0.231-0.311,0.351-0.461c0.18-0.221,0.361-0.431,0.551-0.642
	c0.14-0.16,0.281-0.311,0.431-0.461c0.18-0.19,0.371-0.361,0.561-0.531c0.17-0.17,0.351-0.331,0.531-0.481
	c0.18-0.15,0.361-0.291,0.541-0.421c0.211-0.16,0.421-0.321,0.642-0.471c0.18-0.12,0.351-0.231,0.531-0.341
	c0.231-0.15,0.471-0.291,0.712-0.421c0.19-0.1,0.391-0.201,0.581-0.291c0.241-0.12,0.471-0.231,0.712-0.341
	c0.241-0.1,0.481-0.19,0.722-0.271c0.211-0.08,0.411-0.16,0.632-0.231c0.301-0.09,0.602-0.17,0.912-0.251
	c0.13-0.03,0.251-0.08,0.381-0.1l89.46-19.971c8.101-1.805,16.152,3.299,17.956,11.409
	C513.442,51.895,508.339,59.936,500.238,61.741z"/>
<g>
</g>
<g>
</g>
<g>
</g>
<g>
</g>
<g>
</g>
<g>
</g>
<g>
</g>
<g>
</g>
<g>
</g>
<g>
</g>
<g>
</g>
<g>
</g>
<g>
</g>
<g>
</g>
<g>
</g>
</svg>
