<svg height="488pt" viewBox="-16 0 488 488" width="488pt" xmlns="http://www.w3.org/2000/svg"><path d="m390.601562 228.199219-16.402343-35.199219c-6.199219-13.398438-9.398438-28-9.398438-42.800781 0-2.800781.199219-5.597657.398438-8.597657l.402343-3.601562 28.398438-124.398438c1.199219-5-2.601562-9.800781-7.800781-9.800781h-316.199219c-5.199219 0-9 4.800781-7.800781 9.800781l28.402343 124.398438.398438 3.601562c.199219 2.796876.398438 5.597657.398438 8.597657 0 14.800781-3.199219 29.402343-9.398438 42.800781l-16.398438 35.199219c-18.601562 39.800781-28.203124 83.199219-28.203124 127v45.402343c0 25.597657 2 51.398438 6.203124 76.597657.597657 3.800781 4 6.601562 8 6.601562h156c3.796876 0 7.199219-2.800781 7.796876-6.601562l9.800781-52c.199219-1.398438 1.402343-2.398438 3-2.398438 1.402343 0 2.601562 1 3 2.398438l9.800781 52c.800781 3.800781 4 6.601562 7.800781 6.601562h156c4 0 7.199219-2.800781 7.800781-6.601562 4.199219-25.398438 6.199219-51 6.199219-76.597657v-45.402343c-.199219-43.800781-9.800781-87.199219-28.199219-127zm0 0" fill="#f9cfcf"/><path d="m404.601562 488h-156c-5.800781 0-10.800781-4.199219-11.800781-9.800781l-8.800781-46.800781-8.800781 46.800781c-1 5.601562-6 9.800781-11.800781 9.800781h-156c-6 0-11-4.199219-11.796876-10-4.203124-25.398438-6.203124-51.398438-6.203124-77.199219v-45.402343c0-44.199219 9.800781-88.796876 28.601562-128.796876l16.398438-35.203124c6-12.796876 9-27 9-41 0-2.796876-.199219-5.398438-.398438-8.199219l-.199219-3.199219-28.402343-124.398438c-.796876-3.601562 0-7.203124 2.402343-10.203124 2.199219-2.796876 5.597657-4.398438 9.199219-4.398438h316c3.601562 0 7 1.601562 9.398438 4.601562 2.203124 2.796876 3.203124 6.597657 2.402343 10.199219l-28.402343 124.199219-.199219 3.199219c-.199219 2.800781-.398438 5.402343-.398438 8.199219 0 14 3.199219 28.203124 9 41l16.398438 35.203124c18.601562 40 28.601562 84.597657 28.601562 128.796876v45.402343c0 25.800781-2.199219 51.800781-6.199219 77.199219-1.203124 5.800781-6.203124 10-12 10zm-176.601562-69c3.398438 0 6.199219 2.398438 6.800781 5.601562l9.800781 52c.398438 1.796876 2 3.199219 4 3.199219h156c2 0 3.597657-1.402343 4-3.402343 4-25 6.199219-50.597657 6.199219-76v-45.398438c0-43-9.601562-86.398438-27.800781-125.398438l-16.398438-35.203124c-6.402343-13.796876-9.800781-29.199219-9.800781-44.398438 0-3 .199219-6 .398438-8.800781l.402343-3.597657c0-.402343 0-.601562.199219-1l28.398438-124c.199219-1.203124 0-2.402343-.800781-3.402343-.796876-1-2-1.597657-3.199219-1.597657h-316.199219c-1.199219 0-2.398438.597657-3.199219 1.597657s-1 2.199219-.800781 3.402343l28.398438 124.398438v.601562l.402343 3.597657c.199219 3 .398438 6 .398438 8.800781 0 15.199219-3.398438 30.601562-9.800781 44.398438l-16.398438 35.601562c-18.199219 39-27.800781 82.398438-27.800781 125.398438v45.402343c0 25.398438 2 51 6.199219 76 .402343 1.800781 2 3.398438 4 3.398438h156c2 0 3.601562-1.398438 4-3.199219l9.800781-52c.601562-3.601562 3.402343-6 6.800781-6zm0 0" fill="#3762cc"/><path d="m426.398438 448h-396.796876c-14.203124 0-25.601562-11.398438-25.601562-25.601562v-308.796876c0-14.203124 11.398438-25.601562 25.601562-25.601562h396.796876c14.203124 0 25.601562 11.398438 25.601562 25.601562v308.796876c0 14.203124-11.398438 25.601562-25.601562 25.601562zm0 0" fill="#f9a7a7"/><path d="m28 407.800781v-279.601562c0-7 5.800781-12.800781 12.800781-12.800781h374.398438c7 0 12.800781 5.800781 12.800781 12.800781v279.800781c0 7-5.800781 12.800781-12.800781 12.800781h-374.398438c-7-.199219-12.800781-5.800781-12.800781-13zm0 0" fill="#4671c6"/><path d="m374.199219 193c-6.199219-13.398438-9.398438-28-9.398438-42.800781 0-2.800781.199219-5.597657.398438-8.597657l.402343-3.601562 5.199219-22.800781h-285.402343l5.203124 22.800781.398438 3.601562c.199219 2.796876.398438 5.597657.398438 8.597657 0 14.800781-3.199219 29.402343-9.398438 42.800781l-16.398438 35.199219c-18.601562 39.800781-28.203124 83.199219-28.203124 127v45.402343c0 6.597657.203124 13 .402343 19.597657 1 .199219 2 .402343 3 .402343h374.398438c1 0 2-.203124 3-.402343.199219-6.597657.402343-13 .402343-19.597657v-45.402343c0-44-9.601562-87.199219-28.203124-127zm0 0" fill="#a4c9ff"/><path d="m426.398438 452h-396.796876c-16.402343 0-29.601562-13.199219-29.601562-29.601562v-308.796876c0-16.402343 13.199219-29.601562 29.601562-29.601562h396.796876c16.402343 0 29.601562 13.199219 29.601562 29.601562v308.796876c0 16.402343-13.199219 29.601562-29.601562 29.601562zm-396.796876-360c-12 0-21.601562 9.601562-21.601562 21.601562v308.796876c0 12 9.601562 21.601562 21.601562 21.601562h396.796876c12 0 21.601562-9.601562 21.601562-21.601562v-308.796876c0-12-9.800781-21.601562-21.601562-21.601562zm0 0" fill="#3762cc"/><path d="m415.199219 424.601562h-374.398438c-9.199219 0-16.800781-7.601562-16.800781-16.800781v-279.601562c0-9.199219 7.601562-16.800781 16.800781-16.800781h374.398438c9.199219 0 16.800781 7.601562 16.800781 16.800781v279.800781c0 9.199219-7.601562 16.601562-16.800781 16.601562zm-374.398438-305.203124c-4.800781 0-8.800781 4-8.800781 8.800781v279.800781c0 4.800781 4 8.800781 8.800781 8.800781h374.398438c4.800781 0 8.800781-4 8.800781-8.800781v-279.800781c0-4.800781-4-8.800781-8.800781-8.800781zm0 0" fill="#3762cc"/><path d="m349.800781 220.601562c-.199219-7-7.402343-13.800781-8-21.203124-.601562-7 5.597657-15.199219 4.597657-22.398438-.796876-5.398438-5.796876-10.199219-8.597657-15.199219v-11.800781c0-10.601562-9.800781-19.800781-22.601562-20.398438-1.398438 0-2.800781 0-4.199219.199219-3.398438.597657-6.398438 2.398438-9.398438 4.199219h-2.601562c-5.601562 0-10.800781 2.601562-14.398438 7-7.800781-.398438-16-5.601562-23.203124-5-8.597657.601562-16.597657 8.398438-24.796876 8.601562-8.800781.199219-17.203124-7.402343-25.402343-7.601562-8.800781-.199219-17.800781 6.601562-26 6-8.800781-.601562-16.199219-9-24.199219-10-9-1.199219-19 5-26.398438 3.601562h-.203124c-6.398438-1.203124-12.398438.199219-16.597657 3.398438h-.199219c-6.203124 0-11.402343 5.800781-11.402343 13v13c0 4 1.601562 7.601562 4.199219 10-.597657 1.199219-1 2.601562-1.199219 4.199219-.398438 1.402343-.800781 2.800781-.800781 4.402343v13.796876c0 3.601562 1.402343 6.800781 3.402343 9-2 2.203124-3.402343 5.402343-3.402343 9v13.800781c0 3.601562 1.402343 6.800781 3.402343 9-2 2.199219-3.402343 5.402343-3.402343 9v13.800781c0 6.199219 3.800781 11.199219 9 12.398438-2.199219 3.402343-5 6.402343-5.398438 9.800781-1 6 4 12.800781 3 17.800781v.199219c-1.800781 7.402343 3.398438 14.402343 11 14.800781v13.601562c0 6.398438 5.199219 11.597657 11.601562 11.597657 6.398438 0 11.597657-5.199219 11.597657-11.597657v-13.601562c3-.398438 5.601562-1.800781 7.601562-4.199219 2.597657-3.199219 6.398438-6.402343 7.398438-10.800781 1-5-3.800781-11.800781-3-17.800781.800781-5.199219 7.601562-10.199219 8.199219-16.199219.203124-1.800781-.398438-3.601562-1-5.398438 0-.203124 0-.402343 0-.402343v-13.800781c0-1.796876-.398438-3.597657-1-5.199219 1.601562-3 3.402343-6.199219 3.402343-9.199219 0-2.199219-1-4.398438-2.199219-6.398438v-11c0-3-1-5.800781-2.601562-8 .800781-2 1.398438-3.800781 1.800781-5.800781.398438-1.402343.800781-2.800781.800781-4.402343v-3.597657c5.597657 2.800781 11 7 17.398438 7.597657 8 .601562 17.199219-6.398438 26-6 8.199219.203124 16.601562 7.800781 25.398438 7.601562 8.203124-.199219 16.203124-8 24.800781-8.601562 7.800781-.597657 16.601562 5.203124 24.601562 5 1.199219 7 7.800781 13.402343 7.800781 20.203124.199219 7.398438-6.800781 14.597657-7.203124 21.597657-.199219 7.601562 6.203124 15.199219 5.601562 22.199219-.601562 7.601562-8.398438 13.800781-9.398438 20.601562-.402343 2.601562 0 5.199219.597657 7.800781-3.800781-1-8-1.199219-12.199219 0l-51.398438 15c-11.800781 3.398438-18.601562 15.800781-15.203124 27.597657l.601562 2.203124c.601562 2.199219 1.601562 4.398438 3 6.199219 3 33 12.800781 40.800781 12.800781 40.800781h.597657v13c0 6.398438 5.203124 11.597657 11.601562 11.597657s11.601562-5.199219 11.601562-11.597657v-13h.597657s9.601562-7.402343 12.601562-39.203124l26.597657-7.796876c6-1.800781 10.800781-6 13.402343-11.203124h1.398438 23.800781c4 0 8-2 10.601562-5.398438 3-4 7.398438-8.199219 8.398438-13.800781 1.199219-6.398438-4.398438-15-3.398438-22.800781 1-6.796876 8.597657-13 9.398438-20.597657.601562-7-6-14.601562-5.601562-22.199219-.398438-6.402343 6.601562-13.601562 6.402343-21zm0 0" fill="#ffea92"/></svg>