<?xml version="1.0" encoding="iso-8859-1"?>
<!-- Generator: Adobe Illustrator 19.0.0, SVG Export Plug-In . SVG Version: 6.00 Build 0)  -->
<svg version="1.1" id="Capa_1" xmlns="http://www.w3.org/2000/svg" xmlns:xlink="http://www.w3.org/1999/xlink" x="0px" y="0px"
	 viewBox="0 0 504 504" style="enable-background:new 0 0 504 504;" xml:space="preserve">
<path style="fill:#FFFFFF;" d="M46.4,152.8c20.8,0,38.4-16.8,38.4-38.4l0,0c0,21.6,16.8,38.4,38.4,38.4l0,0
	c21.6,0,38.4-17.6,38.4-38.4l0,0c0,20.8,17.6,38.4,38.4,38.4l0,0c21.6,0,38.4-17.6,38.4-38.4v0.8c0,20.8,17.6,37.6,38.4,37.6l0,0
	c21.6,0,38.4-17.6,38.4-39.2v1.6c0,20.8,17.6,37.6,38.4,37.6l0,0c8,0,16-2.4,22.4-7.2v263.2H24.8V145.6
	C31.2,150.4,38.4,152.8,46.4,152.8L46.4,152.8z"/>
<g>
	<path style="fill:#44C4A1;" d="M315.2,115.2l-0.8-53.6h76.8l0.8,52c0.8,21.6-16.8,39.2-38.4,39.2l0,0
		C332.8,152.8,315.2,136,315.2,115.2z"/>
	<path style="fill:#44C4A1;" d="M238.4,115.2V61.6h76.8l0.8,52.8c0,21.6-16.8,39.2-38.4,39.2l0,0C256,152.8,238.4,136,238.4,115.2z"
		/>
	<path style="fill:#44C4A1;" d="M161.6,114.4V60.8h76.8v52.8c0,21.6-16.8,38.4-38.4,38.4l0,0C179.2,152.8,161.6,136,161.6,114.4z"/>
	<path style="fill:#44C4A1;" d="M84.8,114.4V61.6h76.8v52.8c0,21.6-16.8,38.4-38.4,38.4l0,0C102.4,152.8,84.8,136,84.8,114.4z"/>
	<path style="fill:#44C4A1;" d="M8.8,114.4V61.6h76.8v53.6c0,20.8-17.6,38.4-38.4,38.4l0,0C25.6,152.8,8,135.2,8.8,114.4z"/>
</g>
<polygon style="fill:#FFFFFF;" points="8.8,61.6 392,61.6 365.6,8.8 35.2,8.8 "/>
<g>
	<rect x="58.4" y="208.8" style="fill:#27A2DE;" width="106.4" height="192"/>
	<rect x="196.8" y="208.8" style="fill:#27A2DE;" width="130.4" height="94.4"/>
</g>
<path style="fill:#FFBF5D;" d="M496,369.6c0,41.6-33.6,69.6-75.2,69.6s-75.2-28-75.2-69.6s75.2-134.4,75.2-134.4S496,328,496,369.6z
	"/>
<g>
	<rect x="207.2" y="341.6" style="fill:#193651;" width="16" height="16"/>
	<rect x="253.6" y="341.6" style="fill:#193651;" width="16" height="16"/>
	<rect x="300.8" y="341.6" style="fill:#193651;" width="16" height="16"/>
	<path style="fill:#193651;" d="M420.8,221.6c-6.4,8-20,24.8-37.6,49.6V149.6c0.8-0.8,1.6-1.6,3.2-2.4c8.8-8.8,13.6-20.8,12.8-33.6
		l-0.8-48.8c0.8-2.4,0.8-4.8,0-7.2L372,4.8c-1.6-2.4-4-4.8-7.2-4.8H35.2C32,0.8,28.8,2.4,28,5.6C27.2,6.4,2.4,56.8,1.6,58.4
		c-0.8,0.8-0.8,2.4-0.8,3.2v52.8c0,13.6,5.6,26.4,16,35.2v251.2H0v16c72.8,0,282.4,0,355.2,0c13.6,16,33.6,27.2,57.6,28.8V504h16
		v-58.4c43.2-3.2,75.2-35.2,75.2-76.8C504,329.6,445.6,252.8,420.8,221.6z M384,113.6c0,17.6-13.6,31.2-30.4,31.2
		s-30.4-13.6-30.4-29.6v-0.8l-0.8-44.8h60.8L384,113.6z M40,16.8h320.8l18.4,36.8h-64h-76.8h-76.8H84.8H21.6L40,16.8z M246.4,114.4
		V69.6h60.8l0.8,44.8c0,16.8-13.6,31.2-30.4,31.2C260,144.8,246.4,131.2,246.4,114.4L246.4,114.4L246.4,114.4z M169.6,114.4
		c0-23.2,0-21.6,0-44.8h60.8c0,11.2,0,0.8,0,44.8c0,16.8-13.6,30.4-30.4,30.4C183.2,144.8,169.6,131.2,169.6,114.4L169.6,114.4
		L169.6,114.4z M92.8,114.4V69.6h60.8v44.8c0,16-12.8,30.4-30.4,30.4S92.8,130.4,92.8,114.4L92.8,114.4L92.8,114.4z M16.8,114.4
		L16.8,114.4V69.6h60.8c0,4,0,40.8,0,44.8l0,0l0,0c0,16.8-13.6,30.4-30.4,30.4l0,0C30.4,144.8,16,131.2,16.8,114.4z M32.8,400.8
		V158.4l0,0c19.2,6.4,40.8-0.8,52-17.6c8,12,22.4,20,38.4,20l0,0l0,0c16,0,29.6-8,38.4-20c8.8,12.8,23.2,20,38.4,20l0,0l0,0
		c16,0,29.6-8,38.4-20c8,12,22.4,20,38.4,20l0,0l0,0c16,0,29.6-8,38.4-20c12,17.6,33.6,24,52.8,18.4l0,0v137.6
		c-16,25.6-29.6,53.6-29.6,72.8c0,11.2,2.4,22.4,7.2,32H32.8V400.8z M428.8,430.4l-0.8-13.6l32-47.2l-33.6,28l-3.2-60l0,0l22.4-32.8
		l-23.2,22.4L420,276l-2.4,56l0,0l0,0l-1.6,30.4l-21.6-20.8l20.8,30.4l-3.2,57.6c-34.4-3.2-59.2-28-59.2-60.8
		c0-28.8,44-91.2,67.2-121.6c23.2,30.4,67.2,92.8,67.2,121.6C488,402.4,463.2,427.2,428.8,430.4z"/>
	<circle style="fill:#193651;" cx="143.2" cy="304.8" r="7.2"/>
</g>
<g>
</g>
<g>
</g>
<g>
</g>
<g>
</g>
<g>
</g>
<g>
</g>
<g>
</g>
<g>
</g>
<g>
</g>
<g>
</g>
<g>
</g>
<g>
</g>
<g>
</g>
<g>
</g>
<g>
</g>
</svg>
